<?xml version="1.0" encoding="UTF-8"?>
<!DOCTYPE svg PUBLIC "-//W3C//DTD SVG 1.1//EN" "http://www.w3.org/Graphics/SVG/1.1/DTD/svg11.dtd">
<!-- Creator: CorelDRAW 2020 (64-Bit Evaluation Version) -->
<svg xmlns="http://www.w3.org/2000/svg" xml:space="preserve" width="9051px" height="6307px" version="1.1" style="shape-rendering:geometricPrecision; text-rendering:geometricPrecision; image-rendering:optimizeQuality; fill-rule:evenodd; clip-rule:evenodd"
viewBox="0 0 379.09 264.15"
 xmlns:xlink="http://www.w3.org/1999/xlink"
 xmlns:xodm="http://www.corel.com/coreldraw/odm/2003">
 <defs>
  <style type="text/css">
   <![CDATA[
    .str0 {stroke:#002E3D;stroke-width:0.04;stroke-miterlimit:22.9256}
    .fil3 {fill:#002E3D}
    .fil1 {fill:#054F5C}
    .fil6 {fill:#DF3B35}
    .fil0 {fill:#E0E0EC}
    .fil9 {fill:#F9AD04}
    .fil2 {fill:#F9FAFC}
    .fil7 {fill:#FB9483}
    .fil10 {fill:#FCCF52}
    .fil8 {fill:black;fill-rule:nonzero}
    .fil5 {fill:#002E3D;fill-rule:nonzero}
    .fil13 {fill:#054F5C;fill-rule:nonzero}
    .fil11 {fill:#A1A0C0;fill-rule:nonzero}
    .fil12 {fill:#C4C2D7;fill-rule:nonzero}
    .fil4 {fill:#F9FAFC;fill-rule:nonzero}
    .fil14 {fill:white;fill-rule:nonzero}
   ]]>
  </style>
 </defs>
 <g id="Layer_x0020_1">
  <metadata id="CorelCorpID_0Corel-Layer"/>
  <rect class="fil0" width="379.09" height="264.15"/>
  <g id="_1574714926560">
   <g>
    <path class="fil1" d="M144.77 43.71l87.72 0c5.25,0 9.54,4.3 9.54,9.54l0 161.98c0,5.25 -4.29,9.55 -9.54,9.55l-87.72 0c-5.25,0 -9.55,-4.3 -9.55,-9.55l0 -161.98c0,-5.24 4.3,-9.54 9.55,-9.54z"/>
    <path class="fil2" d="M144.77 48.04l21.3 0c0,3.82 3.12,6.94 6.94,6.94l31.24 0c3.82,0 6.95,-3.12 6.95,-6.94l21.29 0c2.87,0 5.21,2.35 5.21,5.21l0 161.98c0,2.87 -2.34,5.21 -5.21,5.21l-87.72 0c-2.87,0 -5.21,-2.34 -5.21,-5.21l0 -161.98c0,-2.86 2.34,-5.21 5.21,-5.21l0 0z"/>
   </g>
   <g>
    <path class="fil3" d="M202.46 146.41l6.61 9.09c0,0 12.74,31.37 14.21,44.86 0.82,7.54 2.82,11.88 -2.12,19.97l-25.88 0 6.38 -8.59c0,0 -6.82,-24.36 -10.81,-30.79 0,0 -7.19,24.98 -14.04,39.38l-24.79 0c1.75,-2.44 3.1,-4.24 3.8,-5.01 0,0 1.56,-16.63 -6.2,-47 -7.76,-30.38 52.84,-21.91 52.84,-21.91z"/>
    <path class="fil4" d="M188.48 153.25l2.15 23.05c-1.54,-2.58 -7.63,-13.08 -7.82,-18.85l-0.32 0.01c0.23,6.69 8.21,19.55 8.23,19.58l0.35 0.58 -2.28 -24.4 -0.31 0.03z"/>
    <path class="fil3" d="M164.41 52.32c0,0 2.69,-4.96 -1.57,-6.66 0,0 1.37,-10.6 -8.51,-3.83 -4.24,2.91 -17.12,3.55 -13.23,9.14 0,0 -4.07,0.77 -2.67,4.64 1.4,3.87 3.71,15.71 8.8,15.13 5.09,-0.59 17.18,-18.42 17.18,-18.42z"/>
    <path class="fil5 str0" d="M164.55 52.39c0.01,-0.01 2.73,-5.03 -1.54,-6.83 0.12,-1.16 0.79,-10.41 -8.77,-3.86 -1.37,0.94 -3.67,1.64 -6,2.36 -2.46,0.75 -4.94,1.51 -6.48,2.58 -1.51,1.05 -2.11,2.37 -0.91,4.23 -0.86,0.24 -3.83,1.31 -2.57,4.79 0.26,0.71 0.54,1.68 0.87,2.79 1.49,5.04 3.81,12.94 8.1,12.44 5.16,-0.59 17.26,-18.43 17.29,-18.48l0.01 -0.02zm-1.77 -6.59c4.01,1.6 1.62,6.21 1.5,6.44 -0.16,0.23 -12.07,17.77 -17.06,18.34 -4.03,0.46 -6.31,-7.28 -7.77,-12.22 -0.33,-1.12 -0.61,-2.09 -0.87,-2.8 -1.34,-3.7 2.54,-4.43 2.55,-4.44l0.24 -0.04 -0.14 -0.2c-1.22,-1.76 -0.69,-3.01 0.71,-3.98 1.5,-1.04 3.96,-1.8 6.39,-2.54 2.36,-0.72 4.68,-1.43 6.09,-2.4 9.59,-6.58 8.27,3.65 8.26,3.68l-0.01 0.12 0.11 0.04z"/>
    <path class="fil6" d="M158.21 77.75c0,0 18.43,-0.67 26.31,3.85 7.87,4.53 35.18,22.29 35.86,23.29 0.67,1.01 8.21,9.39 1,15.08 -7.2,5.7 -19.1,9.22 -19.1,9.22l8.56 25.81 -63.36 17.86c0,0 -9.41,-31.34 -10.87,-45.41 0,0 -43.19,-43.35 21.6,-49.7z"/>
    <path class="fil7" d="M211.7 112.45c0,0 1.33,-6.21 5,-6.89 3.68,-0.67 6.45,4.71 6.16,6.89 -0.29,2.17 -0.29,7.1 -4.49,7.89 -4.2,0.8 -6.67,-7.89 -6.67,-7.89z"/>
    <polygon class="fil8" points="182.68,85.18 191.6,105.02 191.89,104.9 182.97,85.05 "/>
    <path class="fil8" d="M208.47 109.83c-0.01,-0.02 -1.24,-7.73 0.16,-9.86l-0.26 -0.17c-1.47,2.23 -0.22,10.06 -0.21,10.08l0.31 -0.05z"/>
    <polygon class="fil8" points="135.06,93.96 145.89,111.17 146.15,111.01 135.32,93.79 "/>
    <path class="fil5" d="M156.16 125.82c0.04,0.01 11.54,5.17 -8.75,13.77 -0.52,-0.02 -7.07,-0.45 -10.65,-12.18l-0.3 0.09c3.78,12.42 10.96,12.4 10.98,12.4l0.03 0 0.03 -0.01c20.99,-8.89 8.83,-14.34 8.8,-14.36l-0.14 0.29z"/>
    <path class="fil7" d="M144.83 52.16c0,0 3.5,1.17 3.84,7.47l0.31 3.7 -1.53 0.78c0,0 -0.56,-2.72 -2.87,-3.47 -2.31,-0.76 -2.65,5.12 0.57,7.06l1.08 0.48c0,0 0.69,2.58 -0.04,12.32 0,0 13.59,10.6 19.32,2.41 0,0 -1.78,-5.99 -1.93,-7.78 0,0 6.09,-4.12 2.16,-18.91 0,0 -0.29,-7.4 -5.89,-9.81 0,0 -5.31,3.47 -9.8,2.23 -4.48,-1.24 -5.22,3.52 -5.22,3.52z"/>
    <path class="fil3" d="M164.31 78.6c-0.36,-1.4 -0.67,-2.76 -0.73,-3.47 -7.79,3.47 -12.97,-2.81 -12.97,-2.81 4.02,8.78 13.7,6.28 13.7,6.28z"/>
    <path class="fil5" d="M143.84 62.24c0,0 1.2,-0.53 2.48,2.71l0.29 -0.12c-1.39,-3.54 -2.89,-2.88 -2.89,-2.88l0.12 0.29z"/>
    <path class="fil5" d="M160.45 57.05c0.01,0.01 3.03,3.63 3.7,4.33 0.03,0.03 0.04,0.06 0.05,0.08 0.02,0.08 -0.06,0.19 -0.2,0.31 -0.17,0.15 -0.42,0.3 -0.72,0.44 -0.83,0.41 -1.98,0.73 -2.54,0.72l0 0.31c0.59,0.01 1.81,-0.32 2.68,-0.74 0.32,-0.16 0.6,-0.33 0.79,-0.49 0.23,-0.2 0.34,-0.41 0.29,-0.62 -0.01,-0.08 -0.05,-0.15 -0.12,-0.22 -0.66,-0.7 -3.68,-4.31 -3.69,-4.32l-0.24 0.2z"/>
    <path class="fil5" d="M156.68 65.81c0.01,0.01 3.5,2.81 6.89,0.6l-0.17 -0.26c-3.2,2.08 -6.51,-0.57 -6.52,-0.58l-0.2 0.24z"/>
    <path class="fil5" d="M156.96 66.44c0,0 -0.47,-0.9 0.61,-0.8l0.02 -0.31c-1.64,-0.15 -0.92,1.25 -0.91,1.25l0.28 -0.14z"/>
    <path class="fil3" d="M155.7 53.75c-0.53,0.05 -1.5,0.2 -2.31,0.5 -0.82,0.3 -1.48,0.73 -1.82,1.11 -0.35,0.38 -0.39,0.69 -0.31,0.87 0.07,0.19 0.25,0.24 0.74,0.08 0.49,-0.15 1.29,-0.51 2.04,-0.77 0.76,-0.26 1.48,-0.43 1.91,-0.58 0.43,-0.15 0.58,-0.29 0.62,-0.48 0.03,-0.19 -0.05,-0.43 -0.14,-0.58 -0.09,-0.14 -0.19,-0.2 -0.73,-0.15z"/>
    <path class="fil3" d="M164.78 53.89c-0.26,-0.23 -0.68,-0.41 -1.18,-0.52 -0.51,-0.1 -1.1,-0.13 -1.5,-0.11 -0.4,0.02 -0.62,0.08 -0.73,0.21 -0.11,0.13 -0.12,0.33 -0.05,0.49 0.07,0.17 0.21,0.3 0.85,0.5 0.64,0.2 1.79,0.46 2.38,0.5 0.59,0.04 0.64,-0.14 0.62,-0.36 -0.03,-0.22 -0.13,-0.49 -0.39,-0.71z"/>
    <path class="fil3" d="M155.27 57.12c0.48,-0.05 0.91,0.39 0.96,0.97 0.05,0.59 -0.3,1.09 -0.78,1.13 -0.48,0.04 -0.91,-0.4 -0.96,-0.98 -0.05,-0.58 0.3,-1.08 0.78,-1.12z"/>
    <path class="fil3" d="M163.94 56.42c0.48,-0.04 0.91,0.4 0.96,0.98 0.05,0.58 -0.3,1.09 -0.78,1.13 -0.49,0.04 -0.92,-0.4 -0.97,-0.98 -0.05,-0.58 0.31,-1.09 0.79,-1.13z"/>
    <path class="fil9" d="M179.58 108.66c-14.89,-5.17 -28.84,-8.53 -39.36,-9.79l-15.9 -5.52 -2.92 8.42c-2.28,6.56 20.07,20.28 49.92,30.65 29.85,10.37 55.89,13.46 58.17,6.9l2.93 -8.42 -15.9 -5.52c-9.03,-5.54 -22.06,-11.55 -36.94,-16.72z"/>
    <path class="fil10" d="M182.5 100.24c-29.85,-10.37 -55.9,-13.45 -58.18,-6.89 -2.28,6.56 20.07,20.29 49.92,30.66 29.85,10.37 55.9,13.45 58.18,6.89 2.28,-6.56 -20.07,-20.29 -49.92,-30.66z"/>
    <path class="fil9" d="M180.96 104.66c-21.98,-7.64 -40.96,-10.49 -42.4,-6.36 -0.12,0.36 -0.11,0.77 0.04,1.22 4.04,-2.65 21.58,0.33 41.62,7.29 20.03,6.96 35.64,15.5 37.17,20.08 0.39,-0.26 0.66,-0.57 0.79,-0.94 1.43,-4.12 -15.23,-13.65 -37.22,-21.29z"/>
    <polygon class="fil5" points="227.37,133.84 224.42,142.33 224.71,142.44 227.66,133.94 "/>
    <polygon class="fil5" points="216.84,134.08 213.88,142.61 214.18,142.71 217.14,134.19 "/>
    <polygon class="fil5" points="201.07,131.63 198.13,140.1 198.42,140.21 201.37,131.73 "/>
    <polygon class="fil5" points="181.78,126.49 178.86,134.9 179.15,135 182.07,126.6 "/>
    <polygon class="fil5" points="164.16,120.27 161.24,128.68 161.53,128.78 164.45,120.38 "/>
    <polygon class="fil8" points="148.12,113.22 145.24,121.5 145.54,121.6 148.41,113.33 "/>
    <polygon class="fil5" points="134.07,105.26 131.17,113.59 131.47,113.69 134.36,105.36 "/>
    <polygon class="fil5" points="126.46,99.02 123.49,107.57 123.79,107.67 126.76,99.12 "/>
    <path class="fil7" d="M221.67 114.72c0,0 -1.67,6.23 -6.23,7.17 -4.57,0.95 -11.01,2.76 -11.01,2.76 0,0 -0.08,-1.67 1.45,-2.39l-6.09 0.14c0,0 -0.36,-3.48 5.07,-3.91l-4.49 -2.03c0,0 -0.36,-2.61 4.71,-1.88 0,0 -3.84,-1.81 -0.94,-3.34l2.51 0.02c-0.99,-1.36 -0.11,-3.11 -0.11,-3.11 0,0 3.84,2.13 5.61,3.14l3.36 0.03 6.16 3.4z"/>
    <path class="fil5" d="M210.56 114.74c-0.01,0 -3.9,0.14 -5.44,-0.31l-0.09 0.3c1.59,0.46 5.53,0.33 5.54,0.33l-0.01 -0.32z"/>
    <polygon class="fil5" points="212.12,118.16 204.86,118.33 204.87,118.64 212.13,118.47 "/>
    <polygon class="fil5" points="213.18,121.29 205.86,122.1 205.89,122.41 213.22,121.6 "/>
    <path class="fil7" d="M159.96 97.82c0,0 -0.88,4.04 -2.84,5.11l-1.01 25.73c0,0 -9.2,7.95 -15.81,-3.93 0,0 7.47,-15.62 7.68,-21.41 0,0 -0.72,-4.06 -0.72,-5.94 0,-1.89 -1.59,-4.39 1.44,-6.73l0.17 -0.14 1.5 -3.79c0,0 1.37,0.13 1.18,1.95l0 0c1.92,-1.17 3.3,-1.62 2.59,-0.29 0,0 3.35,-0.54 3.06,1.55 0,0 2.99,-0.18 2.56,2.12 0,0 2.63,-0.03 0.2,5.77z"/>
    <path class="fil8" d="M149.96 92.83c0.01,-0.01 2.68,-3.34 4.26,-4.32l-0.16 -0.27c-1.64,1.01 -4.33,4.38 -4.34,4.39l0.24 0.2z"/>
    <path class="fil8" d="M152.21 95.49c0.01,-0.01 3.08,-4.29 5.07,-5.43l-0.15 -0.27c-2.06,1.17 -5.17,5.5 -5.18,5.51l0.26 0.19z"/>
    <path class="fil8" d="M155.64 97.25c0.01,-0.01 3.34,-4.42 4.21,-5.07l-0.18 -0.25c-0.92,0.67 -4.27,5.12 -4.28,5.13l0.25 0.19z"/>
   </g>
   <g>
    <path class="fil11" d="M213.87 92.91l51.83 0c0.91,0 1.65,-0.74 1.65,-1.66l0 -29.09c0,-0.92 -0.74,-1.66 -1.65,-1.66l-51.83 0c-0.91,0 -1.65,0.74 -1.65,1.66l0 29.09c0,0.92 0.74,1.66 1.65,1.66z"/>
    <path class="fil12" d="M215.15 92.91l51.83 0c0.91,0 1.65,-0.74 1.65,-1.66l0 -29.09c0,-0.92 -0.74,-1.66 -1.65,-1.66l-51.83 0c-0.91,0 -1.65,0.74 -1.65,1.66l0 29.09c0,0.92 0.74,1.66 1.65,1.66z"/>
    <polygon class="fil13" points="259.98,87.16 256.29,87.16 256.29,66.22 259.98,66.22 "/>
    <polygon class="fil13" points="226.17,87.16 222.47,87.16 222.47,83.09 226.17,83.09 "/>
    <polygon class="fil13" points="251.53,87.13 247.83,87.13 247.83,69.15 251.53,69.15 "/>
    <polygon class="fil13" points="243.07,87.13 239.38,87.13 239.38,75.49 243.07,75.49 "/>
    <polygon class="fil13" points="234.62,87.2 230.92,87.2 230.92,78.43 234.62,78.43 "/>
    <path class="fil14" d="M227.77 75.6c0.03,0 0.06,-0.01 0.09,-0.03l5.75 -4.1 1.11 1.36c0.05,0.07 0.15,0.08 0.22,0.03l6.97 -5.12 2.06 2.12c0.05,0.05 0.14,0.06 0.2,0.02l7.38 -5.01c0.07,-0.05 0.09,-0.15 0.04,-0.22 -0.05,-0.08 -0.15,-0.09 -0.22,-0.05l-7.27 4.94 -2.06 -2.12c-0.06,-0.06 -0.15,-0.07 -0.21,-0.02l-6.96 5.12 -1.11 -1.37c-0.05,-0.06 -0.14,-0.07 -0.21,-0.03l-5.88 4.19c-0.07,0.05 -0.08,0.15 -0.03,0.22 0.03,0.05 0.08,0.07 0.13,0.07z"/>
    <path class="fil14" d="M252.17 65.63l-1.16 -1.96 1.93 0.18 -0.77 1.78zm-1.45 -2.31c-0.06,0 -0.11,0.03 -0.14,0.07 -0.03,0.05 -0.03,0.12 0,0.17l1.48 2.5c0.03,0.05 0.08,0.08 0.14,0.07 0.06,0 0.11,-0.04 0.14,-0.09l0.97 -2.27c0.02,-0.04 0.02,-0.09 -0.01,-0.14 -0.02,-0.04 -0.07,-0.07 -0.12,-0.07l-2.45 -0.24c0,0 -0.01,0 -0.01,0z"/>
   </g>
   <g>
    <circle class="fil9" cx="241.3" cy="160.96" r="12.69"/>
    <circle class="fil10" cx="243.22" cy="160.96" r="12.69"/>
    <path class="fil9" d="M252.17 160.96c0,5.39 -4.21,9.79 -9.52,10.08 0.19,0.01 0.38,0.02 0.57,0.02 5.58,0 10.1,-4.52 10.1,-10.1 0,-5.58 -4.52,-10.1 -10.1,-10.1 -0.19,0 -0.38,0.01 -0.57,0.02 5.31,0.29 9.52,4.7 9.52,10.08z"/>
    <path class="fil5" d="M243.22 150.8c2.81,0 5.35,1.14 7.19,2.97 1.84,1.84 2.98,4.38 2.98,7.19 0,2.81 -1.14,5.35 -2.98,7.19 -1.84,1.84 -4.38,2.97 -7.19,2.97 -2.8,0 -5.35,-1.13 -7.18,-2.97 -1.84,-1.84 -2.98,-4.38 -2.98,-7.19 0,-2.81 1.14,-5.35 2.98,-7.19 1.83,-1.83 4.38,-2.97 7.18,-2.97zm7.1 3.06c-1.82,-1.81 -4.33,-2.94 -7.1,-2.94 -2.77,0 -5.28,1.13 -7.09,2.94 -1.82,1.82 -2.94,4.33 -2.94,7.1 0,2.77 1.12,5.28 2.94,7.1 1.81,1.81 4.32,2.94 7.09,2.94 2.77,0 5.28,-1.13 7.1,-2.94 1.81,-1.82 2.94,-4.33 2.94,-7.1 0,-2.77 -1.13,-5.28 -2.94,-7.1z"/>
    <polygon class="fil5" points="238.86,149.1 236.68,149.1 236.68,148.97 238.86,148.97 "/>
    <polygon class="fil5" points="234.04,150.48 235.98,150.48 235.98,150.61 234.04,150.61 "/>
    <polygon class="fil5" points="231.65,152.65 233.52,152.65 233.52,152.77 231.65,152.77 "/>
    <polygon class="fil5" points="229.23,156.96 231.16,156.96 231.16,157.09 229.23,157.09 "/>
    <polygon class="fil5" points="228.74,162.73 230.66,162.73 230.66,162.86 228.74,162.86 "/>
    <polygon class="fil5" points="230.3,167.24 232.2,167.24 232.2,167.36 230.3,167.36 "/>
    <polygon class="fil5" points="233.02,170.52 234.84,170.52 234.84,170.65 233.02,170.65 "/>
   </g>
   <g>
    <circle class="fil9" transform="matrix(0.134363 -0.126387 0.194792 0.207085 135.529 186.109)" r="40.3"/>
    <circle class="fil10" transform="matrix(0.134363 -0.126387 0.194792 0.207085 136.349 185.338)" r="40.3"/>
    <path class="fil9" d="M140.17 181.75c3.33,3.54 4.25,8.12 2.17,10.45 0.09,-0.07 0.17,-0.15 0.25,-0.22 2.38,-2.24 1.52,-7.03 -1.93,-10.69 -3.45,-3.67 -8.18,-4.83 -10.56,-2.59 -0.08,0.08 -0.16,0.16 -0.23,0.24 2.45,-1.94 6.97,-0.73 10.3,2.81z"/>
    <path class="fil5" d="M130.06 178.66c1.2,-1.13 2.99,-1.4 4.91,-0.93 1.92,0.47 3.98,1.68 5.71,3.53 1.74,1.84 2.83,3.97 3.18,5.92 0.35,1.95 -0.03,3.71 -1.23,4.84 -1.19,1.13 -2.98,1.4 -4.9,0.93 -1.92,-0.48 -3.98,-1.69 -5.72,-3.53 -1.73,-1.85 -2.82,-3.98 -3.17,-5.92 -0.35,-1.95 0.03,-3.72 1.22,-4.84zm4.93 -0.83c-1.9,-0.47 -3.67,-0.2 -4.85,0.91 -1.18,1.11 -1.56,2.86 -1.21,4.78 0.35,1.92 1.42,4.02 3.14,5.84 1.71,1.83 3.74,3.03 5.64,3.49 1.9,0.47 3.66,0.2 4.84,-0.91 1.19,-1.12 1.56,-2.86 1.21,-4.78 -0.34,-1.93 -1.42,-4.03 -3.13,-5.85 -1.71,-1.82 -3.74,-3.02 -5.64,-3.48z"/>
    <polygon class="fil5" points="127.15,179.29 126.23,180.16 126.15,180.08 127.07,179.21 "/>
    <polygon class="fil5" points="125.95,182.14 126.78,181.35 126.86,181.44 126.03,182.22 "/>
    <polygon class="fil5" points="126.27,184.51 127.07,183.76 127.15,183.85 126.35,184.6 "/>
    <polygon class="fil5" points="127.91,188.33 128.73,187.55 128.81,187.63 127.99,188.41 "/>
    <polygon class="fil5" points="131.26,192.31 132.08,191.54 132.16,191.62 131.34,192.4 "/>
    <polygon class="fil5" points="134.72,194.65 135.53,193.89 135.61,193.97 134.8,194.73 "/>
    <polygon class="fil5" points="137.91,195.72 138.68,194.98 138.76,195.07 137.99,195.8 "/>
   </g>
   <g>
    <circle class="fil9" transform="matrix(-0.0832393 -0.117259 -0.199302 0.14148 119.67 69.9725)" r="40.3"/>
    <circle class="fil10" transform="matrix(-0.0832393 -0.117259 -0.199302 0.14148 119.162 69.2568)" r="40.3"/>
    <path class="fil9" d="M116.8 65.92c-3.41,2.42 -5.08,5.97 -3.87,8.08 -0.05,-0.07 -0.11,-0.14 -0.16,-0.21 -1.47,-2.07 0.19,-5.79 3.72,-8.29 3.53,-2.51 7.59,-2.86 9.06,-0.78 0.05,0.07 0.1,0.15 0.14,0.22 -1.59,-1.84 -5.49,-1.43 -8.89,0.98z"/>
    <path class="fil5" d="M125.59 64.69c-0.74,-1.04 -2.13,-1.48 -3.78,-1.34 -1.65,0.15 -3.56,0.86 -5.33,2.12 -1.78,1.26 -3.09,2.83 -3.76,4.34 -0.68,1.51 -0.73,2.97 0.01,4.01 0.74,1.05 2.13,1.48 3.78,1.34 1.65,-0.14 3.56,-0.86 5.34,-2.12 1.77,-1.26 3.08,-2.83 3.76,-4.34 0.68,-1.51 0.72,-2.96 -0.02,-4.01zm-3.81 -1.26c1.63,-0.14 3,0.29 3.73,1.32 0.73,1.03 0.69,2.47 0.02,3.96 -0.67,1.49 -1.96,3.04 -3.72,4.28 -1.75,1.25 -3.63,1.96 -5.26,2.1 -1.63,0.14 -3.01,-0.29 -3.74,-1.33 -0.73,-1.03 -0.68,-2.47 -0.01,-3.96 0.67,-1.49 1.96,-3.03 3.71,-4.28 1.75,-1.24 3.64,-1.95 5.27,-2.09z"/>
    <polygon class="fil5" points="127.82,65.55 128.39,66.36 128.47,66.31 127.9,65.5 "/>
    <polygon class="fil5" points="128.22,67.97 127.7,67.25 127.62,67.3 128.14,68.03 "/>
    <polygon class="fil5" points="127.48,69.83 126.99,69.13 126.91,69.19 127.4,69.89 "/>
    <polygon class="fil5" points="125.39,72.67 124.88,71.95 124.8,72.01 125.31,72.73 "/>
    <polygon class="fil5" points="121.87,75.44 121.36,74.73 121.28,74.78 121.79,75.5 "/>
    <polygon class="fil5" points="118.61,76.89 118.1,76.18 118.02,76.24 118.52,76.94 "/>
    <polygon class="fil5" points="115.81,77.35 115.33,76.67 115.25,76.73 115.73,77.41 "/>
   </g>
  </g>
 </g>
</svg>
