<svg width="12" height="12" viewBox="0 0 12 12" fill="none" xmlns="http://www.w3.org/2000/svg">
<rect x="0.5" y="-0.5" width="11" height="11" rx="2.5" transform="matrix(1 1.74846e-07 1.74846e-07 -1 8.74228e-08 11)" stroke="#052224"/>
<path d="M9 2.5C9.27614 2.5 9.5 2.72386 9.5 3L9.5 7.5C9.5 7.77614 9.27614 8 9 8C8.72386 8 8.5 7.77614 8.5 7.5L8.5 3.5L4.5 3.5C4.22386 3.5 4 3.27614 4 3C4 2.72386 4.22386 2.5 4.5 2.5L9 2.5ZM2.64645 8.64645L8.64645 2.64645L9.35355 3.35355L3.35355 9.35355L2.64645 8.64645Z" fill="#052224"/>
</svg>
