<svg width="20" height="20" viewBox="0 0 20 20" fill="none" xmlns="http://www.w3.org/2000/svg">
<path d="M18.0283 12.7857C17.5808 13.9173 16.9055 14.9452 16.044 15.8057C14.6248 17.2252 12.7663 18.1237 10.7706 18.3554C8.775 18.587 6.75955 18.138 5.0519 17.0815C4.94143 17.0288 4.81961 17.0043 4.69732 17.0101C4.57503 17.0159 4.45609 17.0519 4.35114 17.1148C2.80277 17.7743 0.650391 18.6504 0.650391 18.6504C0.650391 18.6504 1.71156 16.0122 2.15872 14.9163C2.22012 14.812 2.2547 14.6941 2.25936 14.5732C2.26402 14.4523 2.23862 14.3322 2.18542 14.2235C1.07027 12.4314 0.629833 10.302 0.942827 8.21565C1.25582 6.12931 2.30185 4.22205 3.89397 2.83472C5.51999 1.42601 7.60071 0.650391 9.75375 0.650391C11.9068 0.650391 13.9875 1.42601 15.6135 2.83472C16.5302 3.63646 17.2722 4.61745 17.7937 5.71699C18.3152 6.81652 18.6052 8.01119 18.6455 9.22707C18.6859 10.4429 18.4758 11.6542 18.0283 12.7857Z" stroke="#093030" stroke-width="1.3" stroke-linecap="round" stroke-linejoin="round"/>
</svg>
