<svg width="33" height="30" viewBox="0 0 33 30" fill="none" xmlns="http://www.w3.org/2000/svg">
<rect width="32.2642" height="30" rx="12.4528" fill="#00D09E"/>
<path d="M9.59859 13.0457H23.0416M10.1835 6.79297V10.0088M13.9612 6.79297V10.0088M18.6815 6.79297V10.0088M22.4592 6.79297V10.0088M8.08903 8.64479H24.5537C24.7474 8.64479 24.9332 8.72176 25.0702 8.85875C25.2072 8.99575 25.2842 9.18156 25.2842 9.3753V21.1452C25.2842 21.5422 25.1265 21.9229 24.8458 22.2036C24.5651 22.4843 24.1844 22.642 23.7874 22.642H8.8553C8.45833 22.642 8.07762 22.4843 7.79692 22.2036C7.51622 21.9229 7.35852 21.5422 7.35852 21.1452V9.3753C7.35852 9.18156 7.43548 8.99575 7.57248 8.85875C7.70948 8.72176 7.89529 8.64479 8.08903 8.64479Z" stroke="#093030" stroke-width="1.27712" stroke-linecap="round" stroke-linejoin="round"/>
</svg>
