<svg width="20" height="18" viewBox="0 0 20 18" fill="none" xmlns="http://www.w3.org/2000/svg">
<path d="M2.87862 6.89145H16.3216M3.46354 0.638672V3.85446M7.24126 0.638672V3.85446M11.9615 0.638672V3.85446M15.7392 0.638672V3.85446M1.36906 2.4905H17.8337C18.0274 2.4905 18.2132 2.56746 18.3502 2.70446C18.4872 2.84145 18.5642 3.02726 18.5642 3.22101V14.9909C18.5642 15.3879 18.4065 15.7686 18.1258 16.0493C17.8451 16.33 17.4644 16.4877 17.0674 16.4877H2.13533C1.73836 16.4877 1.35765 16.33 1.07695 16.0493C0.796246 15.7686 0.63855 15.3879 0.63855 14.9909V3.22101C0.63855 3.02726 0.715514 2.84145 0.852512 2.70446C0.98951 2.56746 1.17532 2.4905 1.36906 2.4905Z" stroke="#093030" stroke-width="1.27712" stroke-linecap="round" stroke-linejoin="round"/>
</svg>
