<svg width="15" height="13" viewBox="0 0 15 13" fill="none" xmlns="http://www.w3.org/2000/svg">
<path d="M10.2183 2.30277H13.0634C13.2005 2.30277 13.3362 2.32954 13.4628 2.38156C13.5895 2.43359 13.7045 2.50985 13.8015 2.60598C13.8984 2.70212 13.9753 2.81623 14.0278 2.94184C14.0802 3.06745 14.1072 3.20208 14.1072 3.33803V10.9284C14.1072 11.0644 14.0802 11.199 14.0278 11.3246C13.9753 11.4502 13.8984 11.5643 13.8015 11.6605C13.7045 11.7566 13.5895 11.8329 13.4628 11.8849C13.3362 11.9369 13.2005 11.9637 13.0634 11.9637H1.5795C1.30268 11.9637 1.03719 11.8546 0.841442 11.6605C0.645697 11.4663 0.535767 11.203 0.535767 10.9284V3.33803C0.535767 3.06346 0.645697 2.80013 0.841442 2.60598C1.03719 2.41183 1.30268 2.30277 1.5795 2.30277H4.57378C4.54733 2.24075 4.5473 1.18876 4.5473 1.18876C4.54698 1.10284 4.56379 1.0177 4.5968 0.938254C4.6298 0.858812 4.67834 0.786645 4.73959 0.72589C4.80085 0.665134 4.87364 0.61699 4.95373 0.584255C5.03382 0.55152 5.11964 0.534845 5.20627 0.535161H9.58818C9.76295 0.535161 9.93057 0.604014 10.0542 0.726588C10.1777 0.849163 10.2472 1.01542 10.2472 1.18876C10.2472 1.18876 10.2352 2.24075 10.2183 2.30277Z" stroke="#093030" stroke-width="1.07143" stroke-linecap="round" stroke-linejoin="round"/>
</svg>
