<svg width="12" height="16" viewBox="0 0 12 16" fill="none" xmlns="http://www.w3.org/2000/svg">
<path d="M9.11073 7.95908L9.61073 7.96017V7.95908H9.11073ZM6.00118 11.1723L5.99964 11.6723L6.00272 11.6723L6.00118 11.1723ZM2.88927 7.95908H2.38927L2.38928 7.96053L2.88927 7.95908ZM2.88927 3.71084L2.38927 3.70939V3.71084H2.88927ZM6.00118 0.5L6.00272 -4.88758e-06L6.00003 1.3411e-06L6.00118 0.5ZM9.11073 3.71084H9.61073L9.61072 3.7094L9.11073 3.71084ZM6.00118 13.637L5.99987 14.137L6.00271 14.137L6.00118 13.637ZM2.88929 6.74903C2.61315 6.74903 2.38929 6.97289 2.38929 7.24903C2.38929 7.52518 2.61315 7.74903 2.88929 7.74903V6.74903ZM9.11072 7.74903C9.38687 7.74903 9.61072 7.52518 9.61072 7.24903C9.61072 6.97289 9.38687 6.74903 9.11072 6.74903V7.74903ZM6.49884 11.1723C6.49884 10.8962 6.27498 10.6723 5.99884 10.6723C5.7227 10.6723 5.49884 10.8962 5.49884 11.1723H6.49884ZM5.49884 15.5C5.49884 15.7761 5.7227 16 5.99884 16C6.27498 16 6.49884 15.7761 6.49884 15.5H5.49884ZM8.61073 7.958C8.60916 8.68211 8.32989 9.37304 7.83877 9.88054L8.55738 10.576C9.23164 9.87921 9.6086 8.93847 9.61072 7.96017L8.61073 7.958ZM7.83877 9.88054C7.34817 10.3875 6.6866 10.6702 5.99964 10.6723L6.00272 11.6723C6.96446 11.6694 7.8826 11.2732 8.55738 10.576L7.83877 9.88054ZM6.00272 10.6723C5.31548 10.6702 4.65361 10.3875 4.16264 9.88055L3.44429 10.5762C4.11943 11.2734 5.03775 11.6694 5.99964 11.6723L6.00272 10.6723ZM4.16264 9.88055C3.67113 9.37303 3.39136 8.68202 3.38927 7.95764L2.38928 7.96053C2.3921 8.939 2.76968 9.87965 3.44429 10.5762L4.16264 9.88055ZM3.38927 7.95908V3.71084H2.38927V7.95908H3.38927ZM3.38927 3.71229C3.39137 2.98819 3.67116 2.29748 4.16265 1.79036L3.44456 1.09441C2.7698 1.79063 2.39211 2.73108 2.38928 3.70939L3.38927 3.71229ZM4.16265 1.79036C4.65361 1.28379 5.31537 1.00159 6.00234 0.999999L6.00003 1.3411e-06C5.03828 0.00222352 4.11985 0.397638 3.44456 1.09441L4.16265 1.79036ZM5.99964 0.999998C6.68626 1.00211 7.34753 1.28456 7.83808 1.79108L8.55642 1.09539C7.88172 0.398711 6.96399 0.00296533 6.00272 2.38419e-06L5.99964 0.999998ZM7.83808 1.79108C8.32914 2.29813 8.60864 2.98853 8.61073 3.71229L9.61072 3.7094C9.6079 2.73157 9.23061 1.79154 8.55642 1.09539L7.83808 1.79108ZM8.61073 3.71084V7.95908H9.61073V3.71084H8.61073ZM11 7.95765C10.9961 9.33513 10.4642 10.6519 9.52549 11.6213L10.2438 12.3169C11.3657 11.1585 11.9953 9.59208 12 7.96051L11 7.95765ZM9.52549 11.6213C8.58727 12.59 7.31938 13.133 5.99966 13.137L6.00271 14.137C7.59709 14.1322 9.12145 13.4759 10.2438 12.3169L9.52549 11.6213ZM6.00249 13.137C4.6824 13.1336 3.41394 12.5908 2.47526 11.622L1.75706 12.3178C2.87999 13.4769 4.40504 14.1329 5.99987 14.137L6.00249 13.137ZM2.47526 11.622C1.53607 10.6526 1.00394 9.33551 0.999998 7.95765L2.05636e-06 7.96052C0.00467312 9.59253 0.634655 11.1594 1.75706 12.3178L2.47526 11.622ZM2.88929 7.74903H9.11072V6.74903H2.88929V7.74903ZM3.838 16H8.16201V15H3.838V16ZM5.49884 11.1723V15.5H6.49884V11.1723H5.49884Z" fill="#093030"/>
</svg>
