<svg width="15" height="15" viewBox="0 0 15 15" fill="none" xmlns="http://www.w3.org/2000/svg">
<path d="M14.3896 0.630785L6.29289 8.7092M6.29289 8.7063L8.06439 13.996C8.10274 14.1474 8.19288 14.2805 8.31914 14.3723C8.4454 14.4641 8.59981 14.5088 8.75557 14.4986C8.85882 14.4892 8.95747 14.4514 9.04052 14.3894C9.12358 14.3273 9.18779 14.2435 9.22604 14.1471L14.4709 1.05782C14.5005 0.983913 14.5077 0.902936 14.4917 0.824954C14.4757 0.746972 14.4372 0.675401 14.3809 0.619111C14.3246 0.562821 14.2531 0.524296 14.1751 0.508299C14.0972 0.492303 14.0162 0.499532 13.9423 0.529114L0.856384 5.7753C0.441095 5.94088 0.377219 6.48989 0.725713 6.85009C0.746042 6.8559 6.29289 8.7063 6.29289 8.7063Z" stroke="#093030" stroke-linecap="round" stroke-linejoin="round"/>
</svg>
