<svg width="15" height="13" viewBox="0 0 15 13" fill="none" xmlns="http://www.w3.org/2000/svg">
<path d="M10.4883 2.35599H13.4232C13.5646 2.35599 13.7047 2.3841 13.8353 2.43873C13.9659 2.49336 14.0846 2.57343 14.1846 2.67437C14.2846 2.77531 14.3639 2.89513 14.418 3.02702C14.4722 3.1589 14.5 3.30027 14.5 3.44302V11.4129C14.5 11.5557 14.4722 11.6971 14.418 11.8289C14.3639 11.9608 14.2846 12.0807 14.1846 12.1816C14.0846 12.2825 13.9659 12.3626 13.8353 12.4172C13.7047 12.4719 13.5646 12.5 13.4232 12.5H1.57669C1.29113 12.5 1.01725 12.3855 0.815328 12.1816C0.613401 11.9777 0.5 11.7012 0.5 11.4129V3.44302C0.5 3.15472 0.613401 2.87823 0.815328 2.67437C1.01725 2.47051 1.29113 2.35599 1.57669 2.35599H4.66553C4.63824 2.29087 4.63821 1.18629 4.63821 1.18629C4.63788 1.09607 4.65523 1.00667 4.68927 0.923253C4.72332 0.839839 4.77339 0.764064 4.83658 0.70027C4.89977 0.636476 4.97486 0.585926 5.05748 0.551554C5.1401 0.517182 5.22863 0.499674 5.31799 0.500005H9.83828C10.0186 0.500005 10.1915 0.5723 10.319 0.701004C10.4464 0.829707 10.5181 1.00427 10.5181 1.18629C10.5181 1.18629 10.5057 2.29087 10.4883 2.35599Z" stroke="#093030" stroke-linecap="round" stroke-linejoin="round"/>
</svg>
