<svg width="34" height="58" viewBox="0 0 34 58" fill="none" xmlns="http://www.w3.org/2000/svg">
<path d="M3.6147 3.57116L1.66321 21.3119C1.66904 22.7251 2.09336 24.1049 2.88272 25.2771C3.67209 26.4493 4.7911 27.3614 6.09839 27.8982L4.74542 51.9813C4.71856 53.0304 5.10829 54.0474 5.82932 54.81C6.55034 55.5726 7.5442 56.0186 8.59319 56.0505C9.64218 56.0186 10.6358 55.5726 11.3568 54.81C12.0778 54.0474 12.4675 53.0304 12.4407 51.9813L11.5203 27.8982C12.8284 27.3626 13.9483 26.4508 14.7379 25.2784C15.5274 24.1059 15.9511 22.7254 15.9555 21.3119L14.37 3.57116M8.79265 4.16993V22.4872M31.4786 27.5655C30.8389 27.6511 30.255 27.9751 29.8438 28.4726C29.4326 28.9701 29.2245 29.6044 29.261 30.2488L30.4808 51.9924C30.5076 53.0415 30.1179 54.0585 29.3969 54.8211C28.6759 55.5837 27.682 56.0297 26.633 56.0616C25.584 56.0297 24.5904 55.5837 23.8694 54.8211C23.1484 54.0585 22.7586 53.0415 22.7855 51.9924L23.6393 29.2287C23.6556 28.8087 23.5888 28.3896 23.4422 27.9957C23.2957 27.6017 23.0723 27.2407 22.7855 26.9335V1.66406C22.7855 1.66406 35.4813 2.19627 31.4453 27.5655H31.4786Z" stroke="#F1FFF3" stroke-width="3.32639" stroke-linecap="round" stroke-linejoin="round"/>
</svg>
