<svg width="13" height="13" viewBox="0 0 13 13" fill="none" xmlns="http://www.w3.org/2000/svg">
<rect x="11.5392" y="11.5016" width="11" height="11" rx="2.5" transform="rotate(179.804 11.5392 11.5016)" stroke="#052224"/>
<path d="M3.00898 2.53022C2.73284 2.53116 2.50975 2.75578 2.51069 3.03192L2.52605 7.5319C2.52699 7.80804 2.75162 8.03113 3.02776 8.03019C3.3039 8.02924 3.52699 7.80462 3.52605 7.52848L3.51239 3.52851L7.51237 3.51485C7.78851 3.51391 8.0116 3.28929 8.01066 3.01315C8.00971 2.737 7.78509 2.51391 7.50895 2.51486L3.00898 2.53022ZM9.38348 8.65494L3.36303 2.67546L2.65834 3.38497L8.67879 9.36445L9.38348 8.65494Z" fill="#052224"/>
</svg>
