<svg width="30" height="30" viewBox="0 0 30 30" fill="none" xmlns="http://www.w3.org/2000/svg">
<rect width="30" height="30" rx="15" fill="#DFF7E2"/>
<path d="M21.3887 20.4889L21.395 19.8461H21.3887V20.4889ZM22.0849 18.9691L21.5602 19.3406L21.5688 19.3527L21.5779 19.3644L22.0849 18.9691ZM20.4786 15.0974L21.1118 14.9863L21.1104 14.9788L20.4786 15.0974ZM19.1008 8.4368L19.6079 8.04175L19.6066 8.04011L19.1008 8.4368ZM14.9998 6.40025L15.0013 5.75738L14.9977 5.75739L14.9998 6.40025ZM10.8989 8.4368L10.3934 8.03962L10.3918 8.04175L10.8989 8.4368ZM9.5247 15.0974L8.8928 14.979L8.89151 14.9863L9.5247 15.0974ZM7.91842 18.9691L8.42192 19.3688L8.43288 19.355L8.44306 19.3406L7.91842 18.9691ZM8.61459 20.4889V19.846L8.6024 19.8462L8.61459 20.4889ZM14.3606 6.40026C14.3606 6.7553 14.6484 7.04311 15.0035 7.04311C15.3585 7.04311 15.6463 6.7553 15.6463 6.40026H14.3606ZM15.6463 5.14258C15.6463 4.78754 15.3585 4.49972 15.0035 4.49972C14.6484 4.49972 14.3606 4.78754 14.3606 5.14258H15.6463ZM14.9999 23.9997L15.0012 23.3569H14.9999L14.9999 23.9997ZM21.3825 21.1318C21.68 21.1347 21.9699 21.0485 22.2179 20.8866L21.5152 19.8099C21.4766 19.8351 21.435 19.8465 21.395 19.8461L21.3825 21.1318ZM22.2179 20.8866C22.4656 20.725 22.66 20.4956 22.7823 20.2286L21.6134 19.6932C21.5896 19.7452 21.5542 19.7845 21.5152 19.8099L22.2179 20.8866ZM22.7823 20.2286C22.9045 19.9618 22.9509 19.6661 22.9178 19.3751L21.6403 19.5205C21.6472 19.5808 21.6373 19.641 21.6134 19.6932L22.7823 20.2286ZM22.9178 19.3751C22.8846 19.084 22.7728 18.8059 22.5919 18.5738L21.5779 19.3644C21.6106 19.4063 21.6334 19.4603 21.6403 19.5205L22.9178 19.3751ZM22.6095 18.5976C21.8546 17.5315 21.3416 16.2962 21.1118 14.9863L19.8454 15.2085C20.1076 16.7031 20.6936 18.1168 21.5602 19.3406L22.6095 18.5976ZM21.1104 14.9788C21.0116 14.4523 20.9693 13.9084 20.94 13.3382C20.9114 12.7819 20.8946 12.1751 20.8434 11.5926C20.7393 10.4076 20.4843 9.1668 19.6079 8.04175L18.5936 8.83184C19.2474 9.67116 19.4674 10.6207 19.5626 11.7051C19.6112 12.2572 19.6252 12.8047 19.656 13.4041C19.6861 13.9895 19.7317 14.6026 19.8468 15.216L21.1104 14.9788ZM19.6066 8.04011C19.0507 7.33116 18.3502 6.75732 17.5537 6.3618L16.9819 7.51334C17.6033 7.82197 18.1547 8.27209 18.5949 8.83349L19.6066 8.04011ZM17.5537 6.3618C16.7572 5.96622 15.8855 5.75941 15.0013 5.75739L14.9984 7.0431C15.6833 7.04467 16.3605 7.20477 16.9819 7.51334L17.5537 6.3618ZM14.9977 5.75739C14.1139 5.7603 13.2427 5.9675 12.4465 6.36292L13.0183 7.51445C13.6398 7.20584 14.317 7.04535 15.002 7.0431L14.9977 5.75739ZM12.4465 6.36292C11.6503 6.75827 10.9498 7.33148 10.3934 8.03963L11.4044 8.83397C11.8452 8.27297 12.3967 7.82313 13.0183 7.51445L12.4465 6.36292ZM10.3918 8.04175C9.5153 9.16697 9.26123 10.4071 9.15803 11.5916C9.10731 12.1738 9.09096 12.7807 9.06272 13.3369C9.03376 13.9073 8.99166 14.4516 8.89284 14.979L10.1566 15.2158C10.2717 14.6014 10.317 13.9878 10.3468 13.4021C10.3772 12.8024 10.3908 12.2551 10.4389 11.7032C10.5333 10.6194 10.7524 9.67099 11.4061 8.83184L10.3918 8.04175ZM8.89151 14.9863C8.6617 16.2962 8.14869 17.5315 7.39378 18.5976L8.44306 19.3406C9.30968 18.1168 9.89567 16.7031 10.1579 15.2085L8.89151 14.9863ZM7.41492 18.5694C7.23094 18.8012 7.1167 19.0802 7.08215 19.3727L8.35899 19.5235C8.36607 19.4635 8.38917 19.4101 8.42192 19.3688L7.41492 18.5694ZM7.08215 19.3727C7.04761 19.6651 7.09367 19.9627 7.21654 20.2309L8.38545 19.6955C8.36166 19.6435 8.3519 19.5835 8.35899 19.5235L7.08215 19.3727ZM7.21654 20.2309C7.33948 20.4993 7.53548 20.7296 7.78529 20.8911L8.4831 19.8112C8.44445 19.7862 8.40916 19.7472 8.38545 19.6955L7.21654 20.2309ZM7.78529 20.8911C8.03545 21.0527 8.32764 21.1374 8.62678 21.1317L8.6024 19.8462C8.56269 19.847 8.5214 19.8359 8.4831 19.8112L7.78529 20.8911ZM8.61459 21.1318H21.3887V19.8461H8.61459V21.1318ZM15.6463 6.40026V5.14258H14.3606V6.40026H15.6463ZM16.1917 22.0784C16.192 22.2504 16.1599 22.4202 16.0978 22.5777L17.2939 23.0492C17.4159 22.7398 17.4781 22.4091 17.4774 22.0759L16.1917 22.0784ZM16.0978 22.5777C16.0357 22.7352 15.9453 22.8764 15.8332 22.9939L16.7633 23.8815C16.9921 23.6418 17.172 23.3587 17.2939 23.0492L16.0978 22.5777ZM15.8332 22.9939C15.7211 23.1114 15.5896 23.2028 15.4472 23.2644L15.9579 24.4443C16.2611 24.3131 16.5345 24.1213 16.7633 23.8815L15.8332 22.9939ZM15.4472 23.2644C15.3048 23.3261 15.1533 23.3572 15.0012 23.3569L14.9985 24.6426C15.3285 24.6433 15.6547 24.5756 15.9579 24.4443L15.4472 23.2644ZM14.9999 23.3569C14.8479 23.3569 14.6967 23.3255 14.5545 23.2637L14.042 24.4429C14.3447 24.5744 14.6703 24.6426 14.9999 24.6426L14.9999 23.3569ZM14.5545 23.2637C14.4123 23.2019 14.2811 23.1104 14.1693 22.993L13.2383 23.8797C13.4666 24.1195 13.7394 24.3113 14.042 24.4429L14.5545 23.2637ZM14.1693 22.993C14.0574 22.8755 13.9672 22.7345 13.9053 22.5771L12.7089 23.0481C12.8306 23.3572 13.01 23.6401 13.2383 23.8797L14.1693 22.993ZM13.9053 22.5771C13.8434 22.4198 13.8113 22.2502 13.8116 22.0784L12.5259 22.0759C12.5253 22.4087 12.5873 22.7389 12.7089 23.0481L13.9053 22.5771Z" fill="#093030"/>
</svg>
