<svg width="53" height="48" viewBox="0 0 53 48" fill="none" xmlns="http://www.w3.org/2000/svg">
<path d="M44.9897 19.4073L42.0832 19.8361C42.047 19.839 42.011 19.8285 41.9822 19.8066C41.9534 19.7847 41.9338 19.753 41.9271 19.7176L42.1564 17.2994L39.1399 15.0546L37.6911 13.9687C36.5347 14.6936 35.1845 15.0521 33.819 14.9967C32.4535 14.9413 31.137 14.4746 30.0438 13.6584C28.6048 12.5838 27.6528 10.9849 27.3967 9.21268C27.1406 7.44043 27.6012 5.63945 28.6776 4.20474C29.2115 3.49433 29.8811 2.89569 30.6478 2.44319C31.4145 1.9907 32.2634 1.69322 33.1458 1.56777C34.0283 1.44231 34.9269 1.49139 35.7903 1.71213C36.6536 1.93288 37.4647 2.32095 38.1771 2.85417C39.2695 3.66887 40.0888 4.79338 40.5273 6.07996C40.9659 7.36654 41.0032 8.75504 40.6343 10.0631L50.5831 17.491L51.5 21.5335L45.5308 22.5099L45.0173 19.4347M1.5 30.2389L16.9959 16.0675C17.3088 15.7821 17.7177 15.6238 18.1421 15.6238C18.5665 15.6238 18.9754 15.7821 19.2883 16.0675L34.7752 30.2389M5.39689 26.6801V17.3268H10.3483M33.0238 6.47692C33.5097 9.45173 31.8318 13.4121 28.4391 16.5146C25.2574 19.4621 21.4338 20.8582 18.5363 20.4202M14.9053 17.9746C13.2824 14.9633 14.9054 10.0358 18.9124 6.31268C22.5801 2.89986 27.1647 1.56756 30.108 2.75383M29.5486 46.4909H6.72643C6.3957 46.4909 6.07851 46.3601 5.84465 46.1274C5.61079 45.8947 5.47931 45.579 5.47931 45.2499V27.3006C5.47951 27.129 5.51553 26.9593 5.58497 26.8022C5.65441 26.6452 5.75594 26.5042 5.88293 26.3881L17.2986 15.9489C17.5287 15.7385 17.8297 15.6218 18.1421 15.6218C18.4545 15.6218 18.7557 15.7385 18.9858 15.9489L30.3923 26.3881C30.5193 26.5042 30.6206 26.6452 30.69 26.8022C30.7595 26.9593 30.7955 27.129 30.7957 27.3006V45.2499C30.7957 45.4128 30.7635 45.5742 30.7008 45.7248C30.6381 45.8753 30.5462 46.0122 30.4304 46.1274C30.3146 46.2426 30.1772 46.334 30.0259 46.3964C29.8746 46.4588 29.7124 46.4909 29.5486 46.4909ZM15.8498 37.7124H20.4345C20.8527 37.7124 21.2539 37.8778 21.5496 38.1721C21.8454 38.4665 22.0116 38.8657 22.0116 39.282V46.5H14.2819V39.2728C14.2843 38.8597 14.4503 38.4642 14.7438 38.1721C15.0373 37.88 15.4347 37.7148 15.8498 37.7124Z" stroke="#F1FFF3" stroke-width="3" stroke-linecap="round" stroke-linejoin="round"/>
</svg>
