<svg width="69" height="39" viewBox="0 0 69 39" fill="none" xmlns="http://www.w3.org/2000/svg">
<path d="M31.8074 22.75L21.2774 34.1C20.4774 35.1 21.0475 36.85 22.1875 36.85H25.3374C25.6478 36.852 25.9537 36.7764 26.2273 36.63L45.4375 25.25M28.9274 10.67L23.7673 3.88995C23.1673 2.88995 23.7074 1.51 24.6774 1.5H27.1774C27.6391 1.50653 28.0843 1.67256 28.4375 1.96997L44.6174 14.09M45.4374 25.29C45.4374 25.29 64.5772 26.4999 66.9972 23.8199C68.0472 22.6599 67.2672 20.7099 66.4972 19.8199C64.4972 17.6199 62.4072 15.3599 59.4972 14.5699C54.7072 13.2699 49.4974 13.87 44.6474 14L14.9574 15.35L5.84731 5.34998C5.18854 4.85858 4.38914 4.59211 3.56728 4.58997C1.01728 4.58997 1.40722 5.41 1.74722 6.12L7.57729 18.28C7.49604 18.5321 7.39224 18.7764 7.26724 19.0099C7.06977 19.5611 7.02497 20.1554 7.13735 20.73C7.56735 22.55 9.5173 22.79 11.0873 22.92C13.0873 23.07 15.0874 23.28 17.1474 23.44C21.4574 23.77 25.7573 24.09 30.0473 24.63M64.2173 17.47C64.2173 17.47 63.6675 19.4 58.6975 19.2" stroke="#F1FFF3" stroke-width="3" stroke-linecap="round" stroke-linejoin="round"/>
</svg>
