<svg width="22" height="23" viewBox="0 0 22 23" fill="none" xmlns="http://www.w3.org/2000/svg">
<path d="M4.89509 19.4799C3.45217 18.4272 2.30358 16.9976 1.56602 15.3362C0.828453 13.6748 0.528115 11.8407 0.695489 10.0201C0.949512 7.28609 2.24033 4.76845 4.28432 3.02034C6.3283 1.27222 8.95827 0.436626 11.5963 0.697141C12.9037 0.825717 14.1738 1.21997 15.3342 1.85738C16.4945 2.49479 17.5223 3.36287 18.3589 4.41204C19.1955 5.46122 19.8246 6.67093 20.21 7.97209C20.5955 9.27325 20.7298 10.6404 20.6054 11.9954C20.3507 14.729 19.0597 17.2462 17.0159 18.9941C14.972 20.7421 12.3425 21.578 9.70458 21.3183C9.09094 21.2549 8.48412 21.1339 7.89154 20.957M8.98214 17.3764C11.973 19.7916 15.1972 20.552 17.0187 18.9904C19.4023 16.9511 18.4803 11.7215 14.961 7.30767L14.3229 6.62302M11.8269 4.25442C8.97939 2.13637 5.99701 1.53621 4.27109 3.01331C1.89021 5.05269 2.81216 10.2823 6.32865 14.6961M14.947 5.3586C17.3729 5.04686 19.2084 5.48097 19.7424 6.69295C20.6672 8.78769 17.3447 12.4149 12.3216 14.7951C7.29841 17.1754 2.48325 17.4172 1.55564 15.3108C0.628027 13.2044 3.95342 9.58887 8.97658 7.20862C9.80076 6.81648 10.6453 6.47217 11.5064 6.17727M14.694 5.63829C14.694 6.4428 14.0648 7.09499 13.2885 7.09499C12.5123 7.09499 11.8831 6.4428 11.8831 5.63829C11.8831 4.83377 12.5123 4.18158 13.2885 4.18158C14.0648 4.18158 14.694 4.83377 14.694 5.63829ZM7.85217 20.1937C7.85217 20.9982 7.22292 21.6504 6.4467 21.6504C5.67048 21.6504 5.04123 20.9982 5.04123 20.1937C5.04123 19.3892 5.67048 18.737 6.4467 18.737C7.22292 18.737 7.85217 19.3892 7.85217 20.1937Z" stroke="#093030" stroke-width="1.3" stroke-linecap="round" stroke-linejoin="round"/>
</svg>
