<svg width="55" height="50" viewBox="0 0 55 50" fill="none" xmlns="http://www.w3.org/2000/svg">
<path d="M22.9199 45.25C20.9868 46.095 18.8996 46.5308 16.7898 46.53C12.7337 46.5274 8.84468 44.9142 5.97754 42.0452C3.11039 39.1762 1.5 35.2861 1.5 31.23C1.5 27.1739 3.11039 23.2838 5.97754 20.4148C8.84468 17.5458 12.7337 15.9326 16.7898 15.93C18.799 15.93 20.7887 16.3258 22.645 17.0947C24.5013 17.8636 26.1879 18.9905 27.6086 20.4113C29.0294 21.832 30.1564 23.5187 30.9253 25.3749C31.6942 27.2312 32.0898 29.2208 32.0898 31.23C32.094 35.1978 30.5514 39.011 27.7898 41.86M17.96 40.58C17.5719 40.6287 17.1809 40.6521 16.7898 40.65C14.2915 40.65 11.8955 39.6575 10.1289 37.8909C8.36231 36.1243 7.36987 33.7283 7.36987 31.23C7.36987 28.7316 8.36231 26.3356 10.1289 24.569C11.8955 22.8024 14.2915 21.81 16.7898 21.81C19.2881 21.81 21.6843 22.8024 23.4509 24.569C25.2175 26.3356 26.21 28.7316 26.21 31.23C26.2095 32.5512 25.9304 33.8575 25.3911 35.0637C24.8518 36.2698 24.0642 37.3487 23.0798 38.23M22.9199 17.21C25.6429 15.4208 28.8317 14.4715 32.0899 14.48M32.0899 14.48C36.5322 14.48 40.7926 16.2447 43.9338 19.386C47.0751 22.5272 48.8399 26.7876 48.8399 31.23C48.8399 35.6724 47.0751 39.9328 43.9338 43.074C40.7926 46.2153 36.5322 47.98 32.0899 47.98C27.6561 47.9667 23.4085 46.1962 20.2781 43.0564C17.1477 39.9166 15.3899 35.6637 15.3899 31.23C15.3864 28.078 16.2739 24.9893 17.95 22.32M32.0899 14.48L23.0899 3.93L25.0499 1.5M32.0899 14.48L41.0899 3.93L39.1399 1.5H25.0499M27.7898 20.6C29.156 20.0477 30.6164 19.7659 32.0899 19.77C33.5948 19.77 35.085 20.0664 36.4754 20.6423C37.8658 21.2182 39.1292 22.0623 40.1934 23.1265C41.2576 24.1907 42.1016 25.454 42.6775 26.8444C43.2535 28.2348 43.5499 29.725 43.5499 31.23C43.5499 32.7349 43.2535 34.2251 42.6775 35.6155C42.1016 37.0059 41.2576 38.2693 40.1934 39.3334C39.1292 40.3976 37.8658 41.2418 36.4754 41.8177C35.085 42.3936 33.5948 42.69 32.0899 42.69C29.0505 42.69 26.1355 41.4826 23.9864 39.3334C21.8372 37.1843 20.6299 34.2693 20.6299 31.23C20.623 28.8321 21.3755 26.4936 22.7798 24.55M25.0499 1.5L36.6899 9.08M50.0999 11.74V17.22M52.8399 14.48H47.3599M15.9699 1.5V6.98M18.7099 4.24H13.2299" stroke="#F1FFF3" stroke-width="3" stroke-linecap="round" stroke-linejoin="round"/>
</svg>
